<svg width="40" height="41" viewBox="0 0 40 41" fill="none" xmlns="http://www.w3.org/2000/svg">
<g clip-path="url(#clip0_218_5712)">
<path d="M24.9717 31.4892C24.9717 31.4892 24.5957 32.7613 23.3063 32.4454C22.0169 32.1296 18.9631 31.3942 18.9631 31.3942" stroke="url(#paint0_linear_218_5712)" stroke-width="1.5" stroke-miterlimit="10" stroke-linecap="round" stroke-linejoin="round"/>
<path d="M24.9717 31.4893C24.9717 31.4893 24.5958 32.7614 23.3063 32.4455C22.0169 32.1296 18.9631 31.3942 18.9631 31.3942M15.0283 9.51073C15.0283 9.51073 15.4042 8.23869 16.6937 8.55455C17.9832 8.87041 21.0369 9.60581 21.0369 9.60581M12.0274 37.6901L8.40494 29.7919C8.17868 29.2987 7.59547 29.0822 7.10227 29.3084L5.29717 30.1362C4.78318 30.372 4.55763 30.9798 4.79334 31.4938L8.38134 39.3168C8.61713 39.8308 9.22487 40.0563 9.73885 39.8206L11.5439 38.9927C12.0372 38.7665 12.2536 38.1833 12.0274 37.6901Z" stroke="url(#paint1_linear_218_5712)" stroke-width="1.5" stroke-miterlimit="10" stroke-linecap="round" stroke-linejoin="round"/>
<path d="M15.0283 9.51072C15.0283 9.51072 15.4042 8.23869 16.6937 8.55455C17.9831 8.87041 21.0369 9.6058 21.0369 9.6058" stroke="url(#paint2_linear_218_5712)" stroke-width="1.5" stroke-miterlimit="10" stroke-linecap="round" stroke-linejoin="round"/>
<path d="M4.8684 10.9367C5.63418 12.5359 7.39686 11.78 7.54483 11.7246L15.0282 9.51067C15.0282 9.51067 14.5159 11.0158 16.0673 11.635C20.3667 13.3513 20.8795 13.6416 21.9675 13.6589L21.9677 13.6591C25.3314 13.6478 25.9408 13.6204 27.6124 12.8722C28.4834 12.4819 29.315 12.0089 30.0956 11.4597C30.4979 11.1764 30.9368 10.949 31.4002 10.7835L28.3877 4.21484L26.3773 4.97813C24.8212 5.48532 23.1898 5.53665 21.8832 5.01524L19.1086 3.90757C18.5021 3.69851 17.1089 3.37311 15.6631 4.11406C15.6627 4.11424 15.6623 4.11442 15.6619 4.1146L5.97552 8.39925C5.68239 8.54965 4.20769 9.43442 4.8684 10.9367Z" stroke="url(#paint3_linear_218_5712)" stroke-width="1.5" stroke-miterlimit="10" stroke-linecap="round" stroke-linejoin="round"/>
<path d="M21.9456 18.0292C21.9456 18.0292 21.1633 17.2168 20.1103 17.2168C19.0573 17.2168 18.2901 17.984 18.2901 18.7738C18.2901 19.5635 19.2829 20.1954 20.539 20.5263C21.7951 20.8572 22.0609 21.5066 22.0609 22.1986C22.0609 22.8905 21.4492 23.7831 20.015 23.7831C18.5809 23.7831 17.9391 22.7401 17.9391 22.7401M20 15.9982V16.8808M20 24.1193V25.0018M30.2386 34.2753C31.5004 33.717 32.7624 33.1588 34.0243 32.6007C34.3176 32.4503 35.7923 31.5655 35.1315 30.0633C34.3657 28.464 32.603 29.22 32.4551 29.2754L24.9717 31.4893C24.9717 31.4893 25.484 29.9842 23.9326 29.365C19.6331 27.6486 19.1204 27.3583 18.0323 27.341L18.0322 27.3409C14.6685 27.3521 14.0592 27.3796 12.3875 28.1278C11.5165 28.518 10.6849 28.9911 9.90429 29.5403C9.50194 29.8236 9.06308 30.051 8.59967 30.2165L11.6123 36.785L13.6227 36.0217C15.1788 35.5145 16.8101 35.4632 18.1167 35.9846L20.8914 37.0922C21.4978 37.3013 22.8911 37.6267 24.3369 36.8858L24.3381 36.8852L27.7359 35.3822M27.9726 3.30995L31.5951 11.2082C31.8213 11.7014 32.4045 11.9179 32.8977 11.6916L34.7027 10.8637C35.2167 10.6279 35.4423 10.0202 35.2066 9.50619L31.6186 1.68322C31.3829 1.16923 30.7751 0.94368 30.2611 1.17939L28.4561 2.00728C27.9628 2.23354 27.7464 2.81674 27.9726 3.30995Z" stroke="url(#paint4_linear_218_5712)" stroke-width="1.5" stroke-miterlimit="10" stroke-linecap="round" stroke-linejoin="round"/>
<path d="M27.7194 19.1131C27.2989 16.7574 25.8269 14.7662 23.8058 13.6421C23.2965 13.6533 22.6971 13.6565 21.9678 13.6589L21.9676 13.6588C21.1764 13.6462 20.689 13.4892 18.8295 12.7448C15.0536 13.3098 12.1578 16.5666 12.1578 20.4999C12.1578 23.4499 13.7869 26.0189 16.1942 27.3577C16.7035 27.3465 17.303 27.3433 18.0323 27.3409L18.0323 27.341C18.8235 27.3536 19.311 27.5106 21.1704 28.2551C24.5051 27.756 27.1517 25.1571 27.7252 21.8475" stroke="url(#paint5_linear_218_5712)" stroke-width="1.5" stroke-miterlimit="10" stroke-linecap="round" stroke-linejoin="round"/>
</g>
<defs>
<linearGradient id="paint0_linear_218_5712" x1="18.9631" y1="31.3942" x2="19.3539" y2="33.5258" gradientUnits="userSpaceOnUse">
<stop stop-color="#FF9A02"/>
<stop offset="1" stop-color="#FFC702"/>
</linearGradient>
<linearGradient id="paint1_linear_218_5712" x1="4.69989" y1="8.50415" x2="33.3216" y2="26.9765" gradientUnits="userSpaceOnUse">
<stop stop-color="#FF9A02"/>
<stop offset="1" stop-color="#FFC702"/>
</linearGradient>
<linearGradient id="paint2_linear_218_5712" x1="15.0283" y1="8.50415" x2="15.4191" y2="10.6358" gradientUnits="userSpaceOnUse">
<stop stop-color="#FF9A02"/>
<stop offset="1" stop-color="#FFC702"/>
</linearGradient>
<linearGradient id="paint3_linear_218_5712" x1="4.69983" y1="3.6532" x2="11.2757" y2="21.2007" gradientUnits="userSpaceOnUse">
<stop stop-color="#FF9A02"/>
<stop offset="1" stop-color="#FFC702"/>
</linearGradient>
<linearGradient id="paint4_linear_218_5712" x1="8.59967" y1="1.08594" x2="43.2259" y2="26.5829" gradientUnits="userSpaceOnUse">
<stop stop-color="#FF9A02"/>
<stop offset="1" stop-color="#FFC702"/>
</linearGradient>
<linearGradient id="paint5_linear_218_5712" x1="12.1578" y1="12.7448" x2="27.668" y2="28.312" gradientUnits="userSpaceOnUse">
<stop stop-color="#FF9A02"/>
<stop offset="1" stop-color="#FFC702"/>
</linearGradient>
<clipPath id="clip0_218_5712">
<rect width="40" height="40" fill="white" transform="translate(0 0.5)"/>
</clipPath>
</defs>
</svg>
