<svg width="40" height="41" viewBox="0 0 40 41" fill="none" xmlns="http://www.w3.org/2000/svg">
<g clip-path="url(#clip0_218_5726)">
<path d="M18.9133 16.5437V16.6647V17.4329C18.9133 18.0046 19.3756 18.4675 19.9451 18.4675C20.5147 18.4675 20.977 18.0046 20.977 17.4329V16.5521V16.4487L21.0758 16.4183C22.3943 16.0125 23.2007 14.9309 23.3553 13.8712C23.4517 13.2101 23.3033 12.5474 22.9386 12.0048L22.9386 12.0048C22.5604 11.4418 21.9621 11.018 21.2004 10.7852L21.2004 10.7852C20.8019 10.6634 20.3801 10.5284 19.9975 10.383C19.6166 10.2382 19.266 10.0799 19.0144 9.90919L19.093 9.79333M18.9133 16.5437L19.0994 9.59903L18.9678 9.55123C18.9433 9.61855 18.9348 9.67914 18.9353 9.72871C18.9355 9.7533 18.9379 9.77619 18.9422 9.79655C18.9453 9.81128 18.9527 9.84164 18.9722 9.8692L18.9772 9.87629L18.9831 9.8827L19.0865 9.78833L18.9831 9.88276L18.9832 9.88282L18.9833 9.88294L18.9835 9.88317L18.9839 9.88364L18.9848 9.88457L18.9866 9.88642L18.9902 9.89004C18.9927 9.89242 18.9953 9.89474 18.9981 9.897C19.0035 9.90152 19.0093 9.90588 19.0157 9.91011L19.093 9.79333M18.9133 16.5437L18.7935 16.5262C18.2589 16.4483 17.7776 16.2782 17.141 15.918L17.0721 16.0399L18.9133 16.5437ZM19.093 9.79333C19.5686 10.116 20.4458 10.4081 21.2413 10.6513L19.093 9.79333ZM19.5232 9.24989C20.1845 9.07747 20.6718 9.25224 20.8831 9.35638L20.883 9.35661M19.5232 9.24989L17.7793 11.7388C16.988 11.2021 16.6014 10.2568 16.7704 9.27185M19.5232 9.24989L19.4879 9.11441M19.5232 9.24989L19.4879 9.11442C19.4879 9.11442 19.4879 9.11442 19.4879 9.11441M20.883 9.35661C21.0405 9.43856 21.1986 9.54763 21.3978 9.70372C21.9076 10.1032 22.6441 10.0128 23.0428 9.50177M20.883 9.35661L21.0161 9.39999L21.0162 9.39975L21.0519 9.2903M20.883 9.35661L20.8831 9.35639L20.9477 9.23243C20.9824 9.25051 21.017 9.26975 21.0519 9.2903M23.0428 9.50177C23.4415 8.99067 23.3512 8.25247 22.8413 7.85294C22.6369 7.6927 22.4474 7.55919 22.2641 7.44474M23.0428 9.50177L22.9324 9.41565M23.0428 9.50177L22.9324 9.41566C22.9324 9.41566 22.9324 9.41566 22.9324 9.41565M22.2641 7.44474L22.2631 7.44575C22.0409 7.30325 21.6482 7.09106 21.117 6.95536V6.20317C21.117 5.5545 20.5923 5.02856 19.9451 5.02856C19.298 5.02856 18.7733 5.55442 18.7733 6.20317V7.02403C17.7287 7.35794 16.9504 8.22349 16.7704 9.27185M22.2641 7.44474L22.2633 7.44599L22.19 7.56348C22.2209 7.58283 22.2521 7.60275 22.2836 7.62328M22.2641 7.44474L22.3631 7.54373L22.3621 7.54475L22.2836 7.62328M16.7704 9.27185L16.9084 9.29554M16.7704 9.27185L16.9084 9.29554M22.2836 7.62328L22.2824 7.62445L22.1875 7.5636C21.9749 7.42723 21.5959 7.2222 21.0824 7.091L20.977 7.06409V6.95536V6.20317C20.977 5.63151 20.5147 5.16856 19.9451 5.16856C19.3756 5.16856 18.9133 5.63144 18.9133 6.20317V7.02403V7.12626L18.8159 7.15739C17.8183 7.47629 17.079 8.30151 16.9084 9.29554M22.2836 7.62328C22.4333 7.72108 22.5888 7.83288 22.755 7.96313L22.755 7.96314C23.2041 8.31501 23.2836 8.96538 22.9324 9.41565M16.9084 9.29554L19.4879 9.11441M16.9084 9.29554C16.7481 10.2295 17.1146 11.1188 17.8579 11.6229M16.9084 9.29554L17.8579 11.6229M22.9324 9.41565C22.5813 9.86568 21.9329 9.94516 21.4841 9.59352L21.4841 9.59352C21.3237 9.46781 21.1861 9.36941 21.0519 9.2903M21.0519 9.2903L21.0538 9.28442L20.945 9.2308C20.713 9.11646 20.1907 8.93119 19.4879 9.11441M17.8579 11.6229L17.8579 11.623C18.4305 12.0115 19.2187 12.3425 20.5984 12.7644M17.8579 11.6229L20.5984 12.7644M20.5984 12.7644L20.5581 12.8962L20.5984 12.7644C20.5984 12.7644 20.5984 12.7644 20.5984 12.7644Z" fill="url(#paint0_linear_218_5726)" stroke="#140C00" stroke-width="0.28"/>
<path d="M26.6036 20.8854L26.2603 21.1381H26.6866H30.1562C30.7258 21.1381 31.1881 21.6011 31.1881 22.1727V39.3254C31.1881 39.8971 30.7258 40.36 30.1562 40.36H9.84375C9.27419 40.36 8.81188 39.8971 8.81188 39.3254V22.1727C8.81188 21.601 9.27419 21.1381 9.84375 21.1381H13.3134H13.7397L13.3964 20.8854C10.6225 18.8435 8.81883 15.5528 8.81883 11.8474C8.81883 5.66748 13.8351 0.64 20 0.64C26.1649 0.64 31.1812 5.66748 31.1812 11.8474C31.1812 15.5528 29.3775 18.8435 26.6036 20.8854ZM11.0156 28.9592H10.8756V29.0992V32.4173V32.5573H11.0156H28.9844H29.1244V32.4173V29.0992V28.9592H28.9844H11.0156ZM29.1244 23.3473V23.2073H28.9844H11.0156H10.8756V23.3473V26.7501V26.8901H11.0156H28.9844H29.1244V26.7501V23.3473ZM28.9844 38.2908H29.1244V38.1508V34.7665V34.6265H28.9844H11.0156H10.8756V34.7665V38.1508V38.2908H11.0156H28.9844ZM20 2.70922C14.9722 2.70922 10.8826 6.80877 10.8826 11.8474C10.8826 16.8862 14.9722 20.9858 20 20.9858C25.0278 20.9858 29.1174 16.8862 29.1174 11.8475C29.1174 6.80877 25.0278 2.70922 20 2.70922Z" fill="url(#paint1_linear_218_5726)" stroke="#140C00" stroke-width="0.28"/>
</g>
<defs>
<linearGradient id="paint0_linear_218_5726" x1="16.476" y1="5.02856" x2="27.5804" y2="10.7921" gradientUnits="userSpaceOnUse">
<stop stop-color="#FF9A02"/>
<stop offset="1" stop-color="#FFC702"/>
</linearGradient>
<linearGradient id="paint1_linear_218_5726" x1="8.67188" y1="0.5" x2="42.9783" y2="19.9314" gradientUnits="userSpaceOnUse">
<stop stop-color="#FF9A02"/>
<stop offset="1" stop-color="#FFC702"/>
</linearGradient>
<clipPath id="clip0_218_5726">
<rect width="40" height="40" fill="white" transform="translate(0 0.5)"/>
</clipPath>
</defs>
</svg>
