<svg width="40" height="41" viewBox="0 0 40 41" fill="none" xmlns="http://www.w3.org/2000/svg">
<path d="M29.0726 11.4274C29.0726 9.63305 28.5405 7.87896 27.5436 6.38698C26.5467 4.89501 25.1297 3.73215 23.4719 3.04547C21.8141 2.35879 19.9899 2.17912 18.23 2.52919C16.4701 2.87926 14.8535 3.74333 13.5847 5.01216C12.3159 6.28098 11.4518 7.89755 11.1018 9.65746C10.7517 11.4174 10.9314 13.2416 11.618 14.8994C12.3047 16.5571 13.4676 17.9741 14.9596 18.971C16.4515 19.9679 18.2056 20.5 20 20.5C22.4054 20.4973 24.7114 19.5405 26.4123 17.8397C28.1131 16.1389 29.0698 13.8328 29.0726 11.4274ZM20 19.2903C18.4449 19.2903 16.9247 18.8292 15.6316 17.9652C14.3386 17.1012 13.3308 15.8732 12.7356 14.4364C12.1405 12.9997 11.9848 11.4187 12.2882 9.89346C12.5916 8.3682 13.3405 6.96717 14.4401 5.86753C15.5397 4.76788 16.9408 4.01901 18.466 3.71562C19.9913 3.41223 21.5722 3.56794 23.009 4.16306C24.4458 4.75819 25.6738 5.766 26.5378 7.05904C27.4017 8.35209 27.8629 9.8723 27.8629 11.4274C27.8605 13.5121 27.0313 15.5106 25.5573 16.9847C24.0832 18.4587 22.0846 19.2879 20 19.2903Z" fill="url(#paint0_linear_218_5720)"/>
<path d="M20 4.77417C18.6841 4.77417 17.3978 5.16437 16.3037 5.89544C15.2096 6.6265 14.3568 7.66559 13.8533 8.88131C13.3497 10.097 13.2179 11.4348 13.4746 12.7254C13.7314 14.016 14.365 15.2015 15.2955 16.1319C16.226 17.0624 17.4114 17.696 18.702 17.9528C19.9926 18.2095 21.3304 18.0777 22.5461 17.5742C23.7618 17.0706 24.8009 16.2178 25.532 15.1237C26.263 14.0296 26.6532 12.7433 26.6532 11.4274C26.6512 9.66348 25.9495 7.97242 24.7023 6.72515C23.455 5.47788 21.7639 4.77625 20 4.77417ZM20 16.8709C18.9234 16.8709 17.8709 16.5517 16.9758 15.9535C16.0806 15.3554 15.3829 14.5052 14.9708 13.5105C14.5588 12.5159 14.451 11.4213 14.6611 10.3654C14.8711 9.30946 15.3896 8.33951 16.1509 7.57822C16.9121 6.81693 17.8821 6.29848 18.938 6.08844C19.994 5.8784 21.0885 5.9862 22.0832 6.39821C23.0778 6.81022 23.928 7.50793 24.5262 8.40312C25.1243 9.2983 25.4436 10.3508 25.4436 11.4274C25.4418 12.8706 24.8677 14.2541 23.8472 15.2746C22.8268 16.2951 21.4432 16.8692 20 16.8709Z" fill="url(#paint1_linear_218_5720)"/>
<path d="M20 9.61295C20.7385 9.61295 21.2097 9.97102 21.2097 10.2178C21.2097 10.3782 21.2734 10.532 21.3869 10.6455C21.5003 10.7589 21.6541 10.8226 21.8145 10.8226C21.975 10.8226 22.1288 10.7589 22.2422 10.6455C22.3557 10.532 22.4194 10.3782 22.4194 10.2178C22.4194 9.35832 21.6579 8.66275 20.6049 8.46376V7.79844C20.6049 7.63803 20.5411 7.48419 20.4277 7.37076C20.3143 7.25733 20.1604 7.1936 20 7.1936C19.8396 7.1936 19.6858 7.25733 19.5723 7.37076C19.4589 7.48419 19.3952 7.63803 19.3952 7.79844V8.46376C18.3422 8.66155 17.5807 9.35711 17.5807 10.2178C17.5807 11.2351 18.6434 12.0323 20 12.0323C20.7385 12.0323 21.2097 12.3904 21.2097 12.6371C21.2097 12.8839 20.7385 13.242 20 13.242C19.2615 13.242 18.7904 12.8839 18.7904 12.6371C18.7904 12.4767 18.7266 12.3229 18.6132 12.2095C18.4998 12.096 18.3459 12.0323 18.1855 12.0323C18.0251 12.0323 17.8713 12.096 17.7578 12.2095C17.6444 12.3229 17.5807 12.4767 17.5807 12.6371C17.5807 13.4966 18.3422 14.1922 19.3952 14.3912V15.0565C19.3952 15.2169 19.4589 15.3708 19.5723 15.4842C19.6858 15.5976 19.8396 15.6613 20 15.6613C20.1604 15.6613 20.3143 15.5976 20.4277 15.4842C20.5411 15.3708 20.6049 15.2169 20.6049 15.0565V14.3912C21.6579 14.1934 22.4194 13.4978 22.4194 12.6371C22.4194 11.6198 21.3567 10.8226 20 10.8226C19.2615 10.8226 18.7904 10.4646 18.7904 10.2178C18.7904 9.97102 19.2615 9.61295 20 9.61295ZM36.7722 12.25C36.7844 12.1436 36.7905 12.0366 36.7903 11.9295C36.7874 11.3751 36.5951 10.8383 36.2453 10.4082C35.8954 9.97806 35.4091 9.68041 34.8669 9.56457C34.2538 9.44901 33.6196 9.57009 33.0921 9.90341C32.5646 10.2367 32.1831 10.7575 32.0242 11.3609L29.3629 19.0182C29.3235 19.0338 29.2851 19.052 29.248 19.0726L23.9012 22.2057C23.0831 22.6863 22.4044 23.372 21.9324 24.1952C21.4604 25.0183 21.2113 25.9503 21.2097 26.8992V33.8065C21.0493 33.8065 20.8955 33.8702 20.782 33.9836C20.6686 34.097 20.6049 34.2509 20.6049 34.4113V38.0403C20.6049 38.2007 20.6686 38.3546 20.782 38.468C20.8955 38.5814 21.0493 38.6452 21.2097 38.6452H29.6774C29.8378 38.6452 29.9917 38.5814 30.1051 38.468C30.2186 38.3546 30.2823 38.2007 30.2823 38.0403V34.4113C30.2823 34.2509 30.2186 34.097 30.1051 33.9836C29.9917 33.8702 29.8378 33.8065 29.6774 33.8065V31.2661C29.6786 31.0107 29.7329 30.7583 29.8371 30.525C29.9412 30.2917 30.0928 30.0827 30.2823 29.9113L34.371 26.2762C34.8182 25.8849 35.1384 25.3689 35.2903 24.7944L37.9153 14.9779C37.9714 14.7729 37.9998 14.5613 38 14.3488C37.9976 13.922 37.8829 13.5033 37.6674 13.1349C37.4518 12.7665 37.1431 12.4613 36.7722 12.25ZM33.1794 11.7178C33.2537 11.405 33.4431 11.1317 33.7099 10.9523C33.9767 10.773 34.3013 10.7007 34.619 10.7501C34.8901 10.8068 35.1335 10.9549 35.3085 11.1696C35.4835 11.3843 35.5796 11.6525 35.5807 11.9295V11.9355C35.04 11.9476 34.5181 12.1353 34.0936 12.4703C33.6691 12.8053 33.3652 13.2694 33.2278 13.7924L31.5403 19C31.2859 18.8761 31.0115 18.7983 30.7299 18.7702L33.1794 11.7178ZM29.0726 37.4355H21.8145V35.0161H29.0726V37.4355ZM36.748 14.6634L34.1169 24.4859C34.0259 24.8272 33.8366 25.1343 33.5726 25.369L29.4778 29.0041C29.161 29.2898 28.9074 29.6387 28.7335 30.0282C28.5595 30.4178 28.469 30.8395 28.4678 31.2661V33.8065H22.4194V26.8992C22.4224 26.1613 22.6168 25.4367 22.9836 24.7964C23.3504 24.1561 23.8771 23.6219 24.5121 23.246L29.8528 20.119C29.9905 20.0388 30.1427 19.9865 30.3007 19.9653C30.4586 19.9441 30.6192 19.9543 30.7732 19.9953C30.9272 20.0363 31.0716 20.1074 31.1981 20.2044C31.3245 20.3014 31.4306 20.4224 31.5101 20.5605C31.6672 20.84 31.7105 21.1693 31.6311 21.4799C31.5891 21.6332 31.5172 21.7768 31.4197 21.9024C31.3221 22.028 31.2007 22.1331 31.0625 22.2117L27.5968 24.2137C27.4651 24.2974 27.3709 24.4288 27.3338 24.5803C27.2967 24.7318 27.3196 24.8918 27.3976 25.0269C27.4757 25.1619 27.6029 25.2616 27.7528 25.3051C27.9026 25.3485 28.0634 25.3324 28.2016 25.2601L31.6674 23.2581C31.9444 23.1009 32.1871 22.8899 32.3814 22.6375C32.5756 22.3851 32.7174 22.0964 32.7984 21.7883C32.963 21.1695 32.8761 20.5106 32.5565 19.9557L32.5202 19.9012L34.3891 14.1371C34.4634 13.8243 34.6528 13.551 34.9196 13.3717C35.1864 13.1923 35.511 13.1201 35.8286 13.1694C36.0997 13.2262 36.3431 13.3743 36.5182 13.5889C36.6932 13.8036 36.7893 14.0719 36.7903 14.3488C36.7924 14.4552 36.7781 14.5613 36.748 14.6634ZM18.7904 33.8065V26.8992C18.7888 25.9503 18.5397 25.0183 18.0677 24.1952C17.5956 23.372 16.917 22.6863 16.0988 22.2057L10.7521 19.0666C10.7158 19.0484 10.6734 19.0363 10.6371 19.0182L7.994 11.4033C7.83971 10.7896 7.4573 10.2578 6.92466 9.91618C6.39201 9.57457 5.74918 9.44883 5.12707 9.56457C4.58606 9.68171 4.10119 9.97991 3.75258 10.4099C3.40398 10.8399 3.21248 11.3759 3.20974 11.9295C3.20958 12.0366 3.21564 12.1436 3.22788 12.25C2.85697 12.4613 2.54823 12.7665 2.33269 13.1349C2.11716 13.5033 2.00243 13.922 2.00006 14.3488C2.00124 14.5609 2.02763 14.772 2.07869 14.9779L4.70973 24.7883C4.86009 25.3653 5.1804 25.8837 5.62909 26.2762L9.71174 29.9113C9.90307 30.0815 10.0564 30.2902 10.1616 30.5236C10.2669 30.7571 10.3217 31.0101 10.3226 31.2661V33.8065C10.1622 33.8065 10.0084 33.8702 9.89494 33.9836C9.78152 34.097 9.71779 34.2509 9.71779 34.4113V38.0403C9.71779 38.2007 9.78152 38.3546 9.89494 38.468C10.0084 38.5814 10.1622 38.6452 10.3226 38.6452H18.7904C18.9508 38.6452 19.1046 38.5814 19.218 38.468C19.3315 38.3546 19.3952 38.2007 19.3952 38.0403V34.4113C19.3952 34.2509 19.3315 34.097 19.218 33.9836C19.1046 33.8702 18.9508 33.8065 18.7904 33.8065ZM4.41941 11.9295C4.42016 11.6533 4.51536 11.3858 4.68921 11.1712C4.86305 10.9567 5.10507 10.808 5.37506 10.7501C5.70154 10.7021 6.03408 10.7796 6.30568 10.9671C6.57728 11.1545 6.76776 11.4379 6.83876 11.7601L9.27021 18.7702C9.15002 18.779 9.0307 18.7972 8.91336 18.8246C8.75666 18.8678 8.60468 18.9265 8.45973 19L6.78433 13.8226C6.64798 13.2947 6.34342 12.8256 5.91673 12.4862C5.49005 12.1469 4.96443 11.9557 4.41941 11.9416V11.9295ZM10.5162 29.0041L6.42747 25.369C6.16198 25.1331 5.97252 24.8236 5.88312 24.4799L3.25208 14.6634C3.22198 14.5613 3.2077 14.4552 3.20974 14.3488C3.21048 14.0727 3.30569 13.8051 3.47953 13.5906C3.65337 13.376 3.89539 13.2274 4.16538 13.1694C4.48933 13.1219 4.81928 13.1983 5.08944 13.3832C5.35959 13.5682 5.55012 13.8482 5.62304 14.1674L7.47989 19.9012C7.46993 19.9207 7.45775 19.939 7.4436 19.9557C7.12386 20.5116 7.0379 21.1717 7.20462 21.7909C7.37134 22.4102 7.77709 22.9379 8.33271 23.2581L11.7984 25.2601C11.9367 25.3324 12.0975 25.3485 12.2473 25.3051C12.3971 25.2616 12.5244 25.1619 12.6024 25.0269C12.6805 24.8918 12.7034 24.7318 12.6663 24.5803C12.6291 24.4288 12.5349 24.2974 12.4033 24.2137L8.93755 22.2117C8.79974 22.1327 8.67884 22.0273 8.58177 21.9015C8.48469 21.7758 8.41333 21.6322 8.37177 21.4788C8.33021 21.3255 8.31925 21.1655 8.33954 21.0079C8.35982 20.8504 8.41093 20.6983 8.48997 20.5605C8.6516 20.2844 8.91521 20.0827 9.22404 19.999C9.53286 19.9153 9.86221 19.9562 10.1412 20.1129L15.4879 23.246C16.123 23.6219 16.6497 24.1561 17.0165 24.7964C17.3833 25.4367 17.5777 26.1613 17.5807 26.8992V33.8065H11.5323V31.2661C11.5313 30.8389 11.4403 30.4166 11.2652 30.0269C11.0901 29.6371 10.8349 29.2886 10.5162 29.0041ZM18.1855 37.4355H10.9275V35.0161H18.1855V37.4355Z" fill="url(#paint2_linear_218_5720)"/>
<defs>
<linearGradient id="paint0_linear_218_5720" x1="10.9274" y1="2.35486" x2="29.0726" y2="20.5" gradientUnits="userSpaceOnUse">
<stop stop-color="#FF9A02"/>
<stop offset="1" stop-color="#FFC702"/>
</linearGradient>
<linearGradient id="paint1_linear_218_5720" x1="13.3468" y1="4.77417" x2="26.6532" y2="18.0806" gradientUnits="userSpaceOnUse">
<stop stop-color="#FF9A02"/>
<stop offset="1" stop-color="#FFC702"/>
</linearGradient>
<linearGradient id="paint2_linear_218_5720" x1="2.00006" y1="7.1936" x2="33.1669" y2="42.8676" gradientUnits="userSpaceOnUse">
<stop stop-color="#FF9A02"/>
<stop offset="1" stop-color="#FFC702"/>
</linearGradient>
</defs>
</svg>
