<svg width="40" height="41" viewBox="0 0 40 41" fill="none" xmlns="http://www.w3.org/2000/svg">
<path d="M32.629 7.37103C29.2554 3.9976 24.7708 2.14 20 2.14C15.2292 2.14 10.7446 3.9976 7.37103 7.37102C7.37103 7.37103 7.37103 7.37103 7.37102 7.37103M32.629 7.37103L7.27203 7.27203L7.37102 7.37103M32.629 7.37103C36.0024 10.7446 37.86 15.2292 37.86 20C37.86 24.7708 36.0024 29.2554 32.629 32.629C29.2554 36.0024 24.7708 37.86 20 37.86C15.2292 37.86 10.7446 36.0024 7.37103 32.629C3.9976 29.2554 2.14 24.7708 2.14 20C2.14 15.2292 3.9976 10.7446 7.37102 7.37103M32.629 7.37103H7.37102M35.8553 19.0853H36.0047L35.995 18.9362C35.7424 15.0548 34.1108 11.44 31.3354 8.66465C28.3077 5.63703 24.2817 3.96938 20 3.96938C16.07 3.96938 12.3558 5.37527 9.43078 7.94744L9.31868 8.04601L9.42423 8.15157L11.4248 10.1521L11.5162 10.2436L11.6146 10.1596C13.8746 8.23097 16.8034 7.0649 20 7.0649C26.7809 7.0649 32.3598 12.3103 32.8928 18.9565L32.9031 19.0853H33.0324H35.8553ZM8.13202 9.44645L8.02627 9.34071L7.92772 9.45319C5.36803 12.3748 3.96938 16.0801 3.96938 20C3.96938 24.2817 5.63703 28.3077 8.66465 31.3354C11.435 34.1057 15.0416 35.7366 18.9152 35.9938L19.0644 36.0037V35.8541V33.0305V32.9015L18.9358 32.891C12.2995 32.348 7.0649 26.7739 7.0649 20C7.0649 16.8139 8.22339 13.8939 10.1407 11.637L10.2243 11.5387L10.133 11.4474L8.13202 9.44645ZM20.8938 35.8566V36.0058L21.0427 35.9963C24.9322 35.7482 28.555 34.1157 31.3354 31.3354C34.1108 28.56 35.7424 24.9452 35.995 21.0637L36.0047 20.9146H35.8553H33.0324H32.9031L32.8928 21.0434C32.3868 27.3521 27.3343 32.3986 21.0228 32.8946L20.8938 32.9048V33.0342V35.8566ZM8.89427 20C8.89427 26.1238 13.8762 31.1057 20 31.1057C26.1238 31.1057 31.1057 26.1238 31.1057 20C31.1057 13.8762 26.1238 8.89427 20 8.89427C13.8762 8.89427 8.89427 13.8762 8.89427 20Z" fill="url(#paint0_linear_218_5730)" stroke="#140C00" stroke-width="0.28"/>
<path d="M22.9699 15.9585L22.9699 15.9585C23.3112 15.502 23.2178 14.8554 22.7613 14.5141L22.7613 14.5141C22.5254 14.3377 21.9274 13.946 21.0696 13.7558L20.9598 13.7315V13.6192V13.1422C20.9598 12.5723 20.4978 12.1103 19.928 12.1103C19.3581 12.1103 18.8961 12.5723 18.8961 13.1422V13.6956V13.8018L18.7938 13.8304C18.7806 13.8341 18.7684 13.8374 18.7567 13.8406C18.7346 13.8466 18.7143 13.8522 18.6925 13.8588L18.6925 13.8588C17.4617 14.2295 16.5387 15.2802 16.2888 16.6067C16.0585 17.8286 16.4595 18.9997 17.3168 19.6721C18.0431 20.2417 19.0552 20.7307 20.8325 21.359C21.4617 21.5814 21.7833 21.9544 21.9323 22.3354C22.0787 22.7097 22.0526 23.0763 22.0174 23.2855M22.9699 15.9585L21.8794 23.2623M22.9699 15.9585C22.6287 16.4149 21.9821 16.5083 21.5256 16.1671L22.9699 15.9585ZM22.0174 23.2855L21.8794 23.2623M22.0174 23.2855C22.0174 23.2855 22.0174 23.2855 22.0174 23.2855L21.8794 23.2623M22.0174 23.2855C21.8748 24.1345 21.1582 25.0596 19.921 25.0679L19.921 25.0679C19.3559 25.0716 18.968 25.0601 18.6101 24.9711C18.249 24.8813 17.9276 24.7152 17.4875 24.4273M21.8794 23.2623C21.7455 24.0591 21.0752 24.9202 19.9201 24.9279C18.788 24.9353 18.4344 24.8794 17.5641 24.3101M17.4875 24.4273L17.5641 24.3101M17.4875 24.4273C17.4875 24.4273 17.4875 24.4273 17.4875 24.4273L17.5641 24.3101M17.4875 24.4273C17.0106 24.1153 16.3711 24.249 16.0591 24.7259C15.7471 25.2028 15.8809 25.8423 16.3577 26.1543C17.2811 26.7583 17.9528 26.998 18.771 27.0861L18.896 27.0996V27.2253V27.761C18.896 28.3308 19.358 28.7928 19.9279 28.7928C20.4978 28.7928 20.9598 28.3308 20.9598 27.761V27.1128V27.0061L21.0626 26.9778C21.6866 26.806 22.2553 26.4922 22.7418 26.0452L22.7418 26.0452C23.4314 25.4116 23.897 24.5528 24.0526 23.6277L24.0526 23.6277C24.3678 21.7534 23.3542 20.0615 21.5204 19.4132M17.5641 24.3101C17.0225 23.9559 16.2963 24.1076 15.942 24.6492C15.5877 25.1909 15.7395 25.9171 16.2811 26.2714C17.2197 26.8854 17.9122 27.1345 18.756 27.2253L22.8365 26.1483C23.5491 25.4936 24.0299 24.6067 24.1906 23.6509C24.5175 21.7075 23.4631 19.9515 21.567 19.2812M21.5204 19.4132L21.567 19.2812M21.5204 19.4132C21.5204 19.4132 21.5204 19.4132 21.5204 19.4132L21.567 19.2812M21.5204 19.4132C20.4654 19.0403 19.2695 18.5808 18.5905 18.0483C18.5905 18.0483 18.5905 18.0483 18.5905 18.0483L21.567 19.2812M18.3168 16.9888L18.3168 16.9889L21.5256 16.1671C21.2331 15.9484 20.4379 15.4884 19.2878 15.8348L19.2877 15.8348C18.5402 16.06 18.3549 16.787 18.3168 16.9888ZM18.6521 13.7247C17.3686 14.1114 16.4103 15.2057 16.1512 16.5807L18.6521 13.7247Z" fill="url(#paint1_linear_218_5730)" stroke="#140C00" stroke-width="0.28"/>
<defs>
<linearGradient id="paint0_linear_218_5730" x1="2" y1="2" x2="38" y2="38" gradientUnits="userSpaceOnUse">
<stop stop-color="#FF9A02"/>
<stop offset="1" stop-color="#FFC702"/>
</linearGradient>
<linearGradient id="paint1_linear_218_5730" x1="15.7506" y1="11.9703" x2="29.3376" y2="18.778" gradientUnits="userSpaceOnUse">
<stop stop-color="#FF9A02"/>
<stop offset="1" stop-color="#FFC702"/>
</linearGradient>
</defs>
</svg>
