<svg width="255" height="233" viewBox="0 0 255 233" fill="none" xmlns="http://www.w3.org/2000/svg">
<path d="M177.447 116.5C177.447 148.549 171.787 177.529 162.666 198.47C158.104 208.941 152.692 217.37 146.719 223.17C140.749 228.967 134.256 232.106 127.501 232.106C120.746 232.106 114.253 228.967 108.283 223.17C102.31 217.37 96.8978 208.941 92.3367 198.47C83.2153 177.529 77.5555 148.549 77.5555 116.5C77.5555 84.4512 83.2153 55.471 92.3367 34.5303C96.8978 24.0589 102.31 15.6306 108.283 9.83042C114.253 4.03358 120.746 0.893832 127.501 0.893832C134.256 0.893832 140.749 4.03358 146.719 9.83042C152.692 15.6306 158.104 24.0589 162.666 34.5303C171.787 55.471 177.447 84.4512 177.447 116.5Z" stroke="black" stroke-width="1.45417"/>
<path d="M150.585 72.209C179.005 87.0222 202.088 105.436 216.442 123.203C223.62 132.088 228.592 140.783 230.974 148.761C233.356 156.734 233.139 163.943 230.017 169.933C226.895 175.923 221.109 180.23 213.21 182.844C205.305 185.46 195.33 186.364 183.936 185.569C161.15 183.979 132.835 175.603 104.415 160.79C75.995 145.977 52.9122 127.563 38.5585 109.796C31.3808 100.911 26.4085 92.2158 24.0259 84.238C21.6447 76.2649 21.8615 69.0558 24.9836 63.0659C28.1057 57.0759 33.891 52.7693 41.7908 50.1547C49.6951 47.5387 59.6707 46.6347 71.0647 47.4299C93.8503 49.0202 122.165 57.3959 150.585 72.209Z" stroke="black" stroke-width="1.45417"/>
<circle cx="204.1" cy="178.545" r="14.0253" fill="black"/>
<circle cx="153.259" cy="17.2533" r="13.2982" fill="#FFC525" stroke="black" stroke-width="1.45417"/>
<circle cx="126.085" cy="114.554" r="26.4469" fill="#FFAE00" stroke="black" stroke-width="1.45417"/>
<circle cx="127.837" cy="100.529" r="7.88922" fill="white"/>
</svg>
