<svg width="132" height="74" viewBox="0 0 132 74" fill="none" xmlns="http://www.w3.org/2000/svg">
<path d="M82.301 37.1552C82.301 47.1343 79.591 56.155 75.2254 62.6721C70.8585 69.1912 64.8588 73.1767 58.2721 73.1767C51.6854 73.1767 45.6856 69.1912 41.3187 62.6721C36.9531 56.155 34.2431 47.1343 34.2431 37.1552C34.2431 27.1761 36.9531 18.1554 41.3187 11.6384C45.6856 5.11928 51.6854 1.13375 58.2721 1.13375C64.8588 1.13375 70.8585 5.11928 75.2254 11.6384C79.591 18.1554 82.301 27.1761 82.301 37.1552Z" fill="black" stroke="black" stroke-width="0.6088"/>
<path d="M131.03 37.1552C131.03 47.1343 128.32 56.155 123.955 62.6721C119.588 69.1912 113.588 73.1767 107.001 73.1767C100.415 73.1767 94.4149 69.1912 90.048 62.6721C85.6825 56.155 82.9724 47.1343 82.9724 37.1552C82.9724 27.1761 85.6825 18.1554 90.048 11.6384C94.4149 5.11928 100.415 1.13375 107.001 1.13375C113.588 1.13375 119.588 5.11928 123.955 11.6384C128.32 18.1554 131.03 27.1761 131.03 37.1552Z" fill="white" stroke="black" stroke-width="0.6088"/>
<path d="M130.967 37.1549C130.967 43.1743 129.332 48.6101 126.705 52.5322C124.076 56.4564 120.478 58.8369 116.544 58.8369C112.609 58.8369 109.011 56.4564 106.382 52.5322C103.755 48.6101 102.12 43.1743 102.12 37.1549C102.12 31.1355 103.755 25.6997 106.382 21.7775C109.011 17.8534 112.609 15.4729 116.544 15.4729C120.478 15.4729 124.076 17.8534 126.705 21.7775C129.332 25.6997 130.967 31.1355 130.967 37.1549Z" fill="black" stroke="black" stroke-width="0.6088"/>
<path d="M121.362 29.5074C121.362 31.5671 120.802 33.4181 119.913 34.7454C119.022 36.0747 117.825 36.8502 116.544 36.8502C115.262 36.8502 114.065 36.0747 113.174 34.7454C112.285 33.4181 111.725 31.5671 111.725 29.5074C111.725 27.4476 112.285 25.5966 113.174 24.2693C114.065 22.9401 115.262 22.1645 116.544 22.1645C117.825 22.1645 119.022 22.9401 119.913 24.2693C120.802 25.5966 121.362 27.4476 121.362 29.5074Z" fill="white" stroke="black" stroke-width="0.6088"/>
<path d="M39.8077 23.9098L39.914 24.5883L40.3453 24.0538L53.7666 7.42268L46.0743 27.3615L45.8271 28.0022L46.4679 27.755L66.4067 20.0627L49.7755 33.4841L49.2411 33.9154L49.9196 34.0217L71.0332 37.3293L49.9196 40.637L49.2411 40.7433L49.7755 41.1746L66.4067 54.596L46.4679 46.9037L45.8271 46.6565L46.0743 47.2972L53.7666 67.236L40.3453 50.6049L39.914 50.0704L39.8077 50.7489L36.5 71.8626L33.1923 50.7489L33.086 50.0704L32.6547 50.6049L19.2334 67.236L26.9257 47.2972L27.1729 46.6565L26.5321 46.9037L6.59333 54.596L23.2245 41.1746L23.7589 40.7433L23.0804 40.637L1.96676 37.3293L23.0804 34.0217L23.7589 33.9154L23.2245 33.4841L6.59334 20.0627L26.5321 27.755L27.1729 28.0022L26.9257 27.3615L19.2334 7.42268L32.6547 24.0538L33.086 24.5883L33.1923 23.9098L36.5 2.7961L39.8077 23.9098Z" fill="white" stroke="black" stroke-width="0.6088"/>
</svg>
