<svg width="243" height="198" viewBox="0 0 243 198" fill="none" xmlns="http://www.w3.org/2000/svg">
<path d="M85.5986 133.868C85.5986 151.339 80.8532 167.113 73.2311 178.492C65.6048 189.877 55.1727 196.772 43.7767 196.772C32.3807 196.772 21.9486 189.877 14.3223 178.492C6.70018 167.113 1.95482 151.339 1.95482 133.868C1.95482 116.397 6.70018 100.623 14.3223 89.2443C21.9486 77.8594 32.3807 70.9638 43.7767 70.9638C55.1727 70.9638 65.6048 77.8594 73.2311 89.2443C80.8532 100.623 85.5986 116.397 85.5986 133.868Z" fill="white" stroke="black" stroke-width="1.90963"/>
<path d="M85.5979 133.867C85.5979 144.377 82.7426 153.849 78.1762 160.666C73.6056 167.489 67.395 171.563 60.6619 171.563C53.9288 171.563 47.7182 167.489 43.1476 160.666C38.5813 153.849 35.7259 144.377 35.7259 133.867C35.7259 123.357 38.5813 113.885 43.1476 107.068C47.7182 100.245 53.9288 96.1709 60.6619 96.1709C67.395 96.1709 73.6056 100.245 78.1762 107.068C82.7426 113.885 85.5979 123.357 85.5979 133.867Z" fill="#FFAE00" stroke="black" stroke-width="1.90963"/>
<path d="M171.151 133.868C171.151 151.339 166.406 167.113 158.783 178.492C151.157 189.877 140.725 196.772 129.329 196.772C117.933 196.772 107.501 189.877 99.8747 178.492C92.2525 167.113 87.5072 151.339 87.5072 133.868C87.5072 116.397 92.2525 100.623 99.8747 89.2443C107.501 77.8594 117.933 70.9638 129.329 70.9638C140.725 70.9638 151.157 77.8594 158.783 89.2443C166.406 100.623 171.151 116.397 171.151 133.868Z" fill="white" stroke="black" stroke-width="1.90963"/>
<path d="M171.15 133.867C171.15 144.377 168.295 153.849 163.729 160.666C159.158 167.489 152.947 171.563 146.214 171.563C139.481 171.563 133.271 167.489 128.7 160.666C124.134 153.849 121.278 144.377 121.278 133.867C121.278 123.357 124.134 113.885 128.7 107.068C133.271 100.245 139.481 96.1709 146.214 96.1709C152.947 96.1709 159.158 100.245 163.729 107.068C168.295 113.885 171.15 123.357 171.15 133.867Z" fill="#FFC525" stroke="black" stroke-width="1.90963"/>
<path d="M154.265 120.425C154.265 123.974 153.3 127.144 151.789 129.399C150.274 131.661 148.285 132.913 146.215 132.913C144.144 132.913 142.155 131.661 140.64 129.399C139.13 127.144 138.164 123.974 138.164 120.425C138.164 116.875 139.13 113.705 140.64 111.45C142.155 109.189 144.144 107.936 146.215 107.936C148.285 107.936 150.274 109.189 151.789 111.45C153.3 113.705 154.265 116.875 154.265 120.425Z" fill="white" stroke="black" stroke-width="1.90963"/>
<path d="M68.7111 120.422C68.7111 123.972 67.7457 127.142 66.235 129.397C64.7202 131.659 62.7309 132.911 60.6606 132.911C58.5903 132.911 56.6011 131.659 55.0862 129.397C53.5755 127.142 52.6102 123.972 52.6102 120.422C52.6102 116.873 53.5755 113.703 55.0862 111.448C56.6011 109.186 58.5903 107.934 60.6606 107.934C62.7309 107.934 64.7202 109.186 66.235 111.448C67.7457 113.703 68.7111 116.873 68.7111 120.422Z" fill="white" stroke="black" stroke-width="1.90963"/>
<path d="M2.73866 121.388C-1.01369 98.4985 5.5003 44.7935 55.0312 15.9756C116.945 -20.0469 262.161 17.1012 207.002 80.1406" stroke="black" stroke-width="1.90963"/>
<path d="M234.014 37.1178L216.616 74.9939L249.37 100.772L211.494 83.3742L185.716 116.127L203.113 78.2513L170.36 52.4733L208.236 69.8711L234.014 37.1178Z" fill="black"/>
</svg>
