<svg width="16" height="16" viewBox="0 0 16 16" fill="none" xmlns="http://www.w3.org/2000/svg">
<path d="M12.6 6.13338C12.0666 6.73338 11.0666 7.33338 9.99998 7.33338C8.99998 7.33338 8.39998 7.00005 7.86665 6.73338C7.33331 6.53338 6.79998 6.20005 5.93331 6.20005C5.13331 6.20005 4.39998 6.66672 3.99998 7.06672L3.33331 6.06672C3.93331 5.46672 4.86665 4.80005 5.93331 4.80005C6.93331 4.80005 7.53331 5.20005 8.06665 5.40005C8.59998 5.60005 9.13331 6.00005 9.99998 6.00005C10.8 6.00005 11.5333 5.46672 11.9333 5.06672L12.6 6.13338ZM12.6666 9.40005C12.0666 10 11.1333 10.6667 10.0666 10.6667C9.06665 10.6667 8.46665 10.3334 7.93331 10.0667C7.39998 9.86672 6.86665 9.46672 5.99998 9.46672C5.19998 9.46672 4.46665 10 4.06665 10.4L3.39998 9.33338C3.99998 8.73338 4.93331 8.06672 5.99998 8.06672C6.99998 8.06672 7.59998 8.40005 8.13331 8.66672C8.66665 8.86672 9.19998 9.20005 10.0666 9.20005C10.8666 9.20005 11.6 8.66672 12 8.26672L12.6666 9.40005Z" fill="white"/>
</svg>
