<svg width="26" height="26" viewBox="0 0 26 26" fill="none" xmlns="http://www.w3.org/2000/svg">
<path d="M13.7288 8.16821L13.7579 8.45745L13.8795 8.19336L16.9149 1.59613L15.2582 8.66668L15.1919 8.94971L15.3925 8.73939L20.4056 3.48522L16.5429 9.63474L16.3883 9.8809L16.6464 9.74713L23.0938 6.4054L17.4437 10.9675L17.2175 11.1501L17.505 11.1074L24.6882 10.0402L17.8629 12.5205L17.5896 12.6198L17.8755 12.6727L25.016 13.9958L17.7551 14.1255L17.4645 14.1307L17.7176 14.2736L24.0416 17.8434L17.132 15.6085L16.8555 15.519L17.0485 15.7364L21.8707 21.1663L16.0612 16.8089L15.8287 16.6345L15.9406 16.9027L18.7385 23.6041L14.6586 17.5965L14.4953 17.356L14.5141 17.6461L14.9845 24.8929L13.0763 17.886L12.9999 17.6056L12.9235 17.886L11.0154 24.8929L11.4857 17.6461L11.5045 17.356L11.3412 17.5965L7.26129 23.6041L10.0592 16.9027L10.1712 16.6345L9.93862 16.8089L4.1291 21.1663L8.95134 15.7364L9.14437 15.519L8.86778 15.6085L1.9582 17.8434L8.28222 14.2736L8.53538 14.1307L8.24472 14.1255L0.983836 13.9958L8.12434 12.6727L8.41018 12.6198L8.13696 12.5205L1.3116 10.0402L8.49481 11.1074L8.78235 11.1501L8.55617 10.9675L2.90598 6.4054L9.35347 9.74713L9.61157 9.8809L9.45694 9.63474L5.59419 3.48522L10.6073 8.73939L10.808 8.94971L10.7416 8.66668L9.08493 1.59613L12.1204 8.19336L12.2419 8.45745L12.2711 8.16821L12.9999 0.942836L13.7288 8.16821Z" fill="#FFBB02" stroke="black" stroke-width="0.158333"/>
</svg>
