<svg width="25" height="24" viewBox="0 0 25 24" fill="none" xmlns="http://www.w3.org/2000/svg">
<path fill-rule="evenodd" clip-rule="evenodd" d="M14.6505 23.7188C15.8439 21.9539 15.9539 20.0478 14.9804 18.0003C14.7097 19.0988 14.2145 19.7654 13.4948 20.0004C14.1632 18.0917 13.6047 16.0296 11.8194 13.814C11.7808 16.1023 11.231 17.7691 10.1697 18.8147C8.70762 20.2536 8.72483 21.8775 10.2212 23.6865C4.00944 20.3807 3.13306 15.9471 7.592 10.3857C7.86856 11.7292 8.53873 12.5541 9.60261 12.8603C8.44297 7.93931 9.66308 3.7463 13.2629 0.28125C13.285 7.97095 15.6431 8.65444 18.6245 12.087C21.8435 16.2061 19.9518 20.9598 14.6505 23.7188Z" fill="url(#paint0_linear_276_125)"/>
<defs>
<linearGradient id="paint0_linear_276_125" x1="12.5" y1="0.28125" x2="12.5" y2="23.7188" gradientUnits="userSpaceOnUse">
<stop stop-color="#FF1158"/>
<stop offset="1" stop-color="#FF6743"/>
</linearGradient>
</defs>
</svg>
