<svg width="24" height="30" viewBox="0 0 24 30" fill="none" xmlns="http://www.w3.org/2000/svg">
<rect x="4.88442" y="12.2792" width="14.237" height="2.01352" rx="1.00676" transform="rotate(-32.728 4.88442 12.2792)" fill="#FFAE00" stroke="black" stroke-width="0.158334"/>
<rect x="5.92197" y="13.7479" width="14.237" height="2.01352" rx="1.00676" transform="rotate(32.9008 5.92197 13.7479)" fill="#FFAE00" stroke="black" stroke-width="0.158334"/>
<circle cx="17.9358" cy="5.16095" r="4.33423" fill="#FFAE00" stroke="black" stroke-width="0.158334"/>
<circle cx="4.62076" cy="13.6885" r="4.33423" fill="#FFAE00" stroke="black" stroke-width="0.158334"/>
<path d="M22.27 23.0388C22.27 25.3899 20.3308 27.2982 17.9358 27.2982C15.5408 27.2982 13.6016 25.3899 13.6016 23.0388C13.6016 20.6876 15.5408 18.7794 17.9358 18.7794C20.3308 18.7794 22.27 20.6876 22.27 23.0388Z" fill="#FFAE00" stroke="black" stroke-width="0.158334"/>
<path d="M15.5345 27.6831C15.385 27.9832 15.2959 28.2825 15.2427 28.5327C15.1895 28.2825 15.1004 27.9832 14.9509 27.6831C14.7649 27.3098 14.4847 26.9338 14.063 26.6505C13.8019 26.475 13.4882 26.3364 13.112 26.2555C13.4882 26.1745 13.8019 26.0359 14.063 25.8605C14.4847 25.5772 14.7649 25.2011 14.9509 24.8278C15.1004 24.5277 15.1895 24.2284 15.2427 23.9781C15.2959 24.2284 15.3851 24.5277 15.5346 24.8278C15.7206 25.2011 16.0008 25.5772 16.4226 25.8605C16.6837 26.0359 16.9973 26.1745 17.3735 26.2554C16.9973 26.3364 16.6836 26.475 16.4224 26.6505C16.0006 26.9338 15.7205 27.3098 15.5345 27.6831Z" fill="#FFAE00" stroke="black" stroke-width="0.158334"/>
<path d="M21.1351 9.28224C20.9914 9.57829 20.9049 9.8735 20.8529 10.1215C20.8009 9.8735 20.7145 9.57829 20.5708 9.28224C20.3897 8.90911 20.1167 8.53291 19.7054 8.24939C19.4506 8.07371 19.1445 7.93486 18.7773 7.85385C19.1445 7.77285 19.4506 7.634 19.7054 7.45831C20.1167 7.1748 20.3897 6.7986 20.5708 6.42547C20.7145 6.12937 20.8009 5.83412 20.8529 5.58606C20.905 5.83412 20.9914 6.12938 21.1352 6.42547C21.3163 6.7986 21.5893 7.1748 22.0006 7.45831C22.2554 7.63398 22.5615 7.77282 22.9286 7.85383C22.5614 7.93484 22.2553 8.07369 22.0004 8.24939C21.5892 8.53291 21.3162 8.90911 21.1351 9.28224Z" fill="#FFAE00" stroke="black" stroke-width="0.158334"/>
<circle cx="4.77038" cy="13.5389" r="1.3421" fill="#FFAE00" stroke="black" stroke-width="0.158334"/>
<path d="M19.4274 22.964C19.4274 23.7014 18.7969 24.3061 18.0105 24.3061C17.2241 24.3061 16.5936 23.7014 16.5936 22.964C16.5936 22.2265 17.2241 21.6219 18.0105 21.6219C18.7969 21.6219 19.4274 22.2265 19.4274 22.964Z" fill="#FFAE00" stroke="black" stroke-width="0.158334"/>
<circle cx="18.0105" cy="5.08615" r="1.4169" fill="#FFAE00" stroke="black" stroke-width="0.158334"/>
</svg>
