<svg width="24" height="24" viewBox="0 0 24 24" fill="none" xmlns="http://www.w3.org/2000/svg">
<path d="M10.7714 6.32748L10.8006 6.61672L10.9221 6.35263L13.142 1.52795L11.9304 6.69878L11.864 6.98181L12.0647 6.77149L15.7309 2.92901L12.906 7.42627L12.7514 7.67244L13.0095 7.53867L17.7246 5.0948L13.5925 8.43114L13.3664 8.61376L13.6539 8.57104L18.9071 7.79059L13.9156 9.60447L13.6424 9.70376L13.9282 9.75672L19.1502 10.7243L13.8402 10.8191L13.5495 10.8243L13.8027 10.9672L18.4276 13.5779L13.3745 11.9435L13.0979 11.854L13.2909 12.0714L16.8175 16.0423L12.5689 12.8557L12.3363 12.6813L12.4483 12.9495L14.4945 17.8504L11.5108 13.4569L11.3474 13.2164L11.3663 13.5065L11.7102 18.8063L10.3147 13.682L10.2384 13.4015L10.162 13.682L8.76649 18.8063L9.11046 13.5065L9.12928 13.2164L8.96596 13.4569L5.98224 17.8504L8.02839 12.9495L8.1404 12.6813L7.90784 12.8557L3.65922 16.0423L7.18582 12.0714L7.37885 11.854L7.10226 11.9435L2.04914 13.5779L6.67403 10.9672L6.92718 10.8243L6.63653 10.8191L1.3265 10.7243L6.54849 9.75672L6.83433 9.70376L6.56111 9.60447L1.56959 7.79059L6.82281 8.57104L7.11036 8.61376L6.88418 8.43114L2.75208 5.0948L7.46726 7.53867L7.72535 7.67244L7.57072 7.42627L4.74582 2.92901L8.41199 6.77149L8.61267 6.98181L8.54635 6.69878L7.33477 1.52795L9.55464 6.35263L9.67615 6.61672L9.70533 6.32748L10.2384 1.04342L10.7714 6.32748Z" fill="#FF9B01" stroke="black" stroke-width="0.158334"/>
<circle cx="14.7959" cy="10.6017" r="4.01916" fill="#FF9B01" stroke="black" stroke-width="0.158334"/>
<circle cx="14.7959" cy="18.7982" r="4.01916" transform="rotate(174.023 14.7959 18.7982)" fill="#FF9B01" stroke="black" stroke-width="0.158334"/>
<circle cx="19.0965" cy="14.9023" r="4.01916" transform="rotate(90 19.0965 14.9023)" fill="#FF9B01" stroke="black" stroke-width="0.158334"/>
<circle cx="10.8997" cy="14.9022" r="4.01916" transform="rotate(-95.9767 10.8997 14.9022)" fill="#FF9B01" stroke="black" stroke-width="0.158334"/>
<circle cx="17.8369" cy="11.8613" r="4.01916" transform="rotate(45 17.8369 11.8613)" fill="#FF9B01" stroke="black" stroke-width="0.158334"/>
<circle cx="12.0408" cy="17.657" r="4.01916" transform="rotate(-140.977 12.0408 17.657)" fill="#FF9B01" stroke="black" stroke-width="0.158334"/>
<circle cx="17.8366" cy="17.9431" r="4.01916" transform="rotate(135 17.8366 17.9431)" fill="#FF9B01" stroke="black" stroke-width="0.158334"/>
<circle cx="12.0407" cy="12.1472" r="4.01916" transform="rotate(-50.9767 12.0407 12.1472)" fill="#FF9B01" stroke="black" stroke-width="0.158334"/>
</svg>
