<svg width="24" height="24" viewBox="0 0 24 24" fill="none" xmlns="http://www.w3.org/2000/svg">
<g clip-path="url(#clip0_15_171)">
<path d="M12.7886 3.42869C12.7028 3.29783 12.5858 3.19037 12.4481 3.116C12.3105 3.04163 12.1565 3.00269 12 3.00269C11.8435 3.00269 11.6895 3.04163 11.5519 3.116C11.4142 3.19037 11.2972 3.29783 11.2114 3.42869L0.925718 19.7144C0.850488 19.8447 0.810883 19.9925 0.810883 20.143C0.810883 20.2934 0.850488 20.4412 0.925718 20.5716C1.01003 20.704 1.12664 20.8128 1.26459 20.8878C1.40254 20.9628 1.55729 21.0014 1.71429 21.0001H22.2857C22.4427 21.0014 22.5975 20.9628 22.7354 20.8878C22.8734 20.8128 22.99 20.704 23.0743 20.5716C23.1495 20.4412 23.1891 20.2934 23.1891 20.143C23.1891 19.9925 23.1495 19.8447 23.0743 19.7144L12.7886 3.42869Z" stroke="white" stroke-width="1.71429" stroke-linecap="round" stroke-linejoin="round"/>
</g>
<defs>
<clipPath id="clip0_15_171">
<rect width="24" height="24" fill="white"/>
</clipPath>
</defs>
</svg>
